<svg viewBox="0 0 99 71" fill="none" xmlns="http://www.w3.org/2000/svg">
<path d="M96.5049 12.3569L76.7387 0.682893C75.1967 -0.227631 73.2969 -0.227631 71.7549 0.682893L51.4297 12.6868C50.2346 13.3938 48.7611 13.3938 47.566 12.6868L27.2409 0.682893C25.6988 -0.227631 23.7991 -0.227631 22.257 0.682893L2.49299 12.3569C0.950935 13.2674 0 14.9513 0 16.7724V40.1204C0 41.9414 0.950935 43.6254 2.49299 44.5359L45.5699 69.9234C48.0029 71.3588 50.9992 71.3588 53.4301 69.9234L96.507 44.5359C98.0491 43.6254 99 41.9414 99 40.1204V16.7724C98.9979 14.9513 98.0469 13.2674 96.5049 12.3569Z" fill="currentColor"/>
</svg>
