<svg width="231" height="24" viewBox="0 0 231 24" fill="none" xmlns="http://www.w3.org/2000/svg">
<g clip-path="url(#clip0_2_1920)">
<path d="M20.6569 5.13393H12.9416V23.3844H7.80148V5.13393H0.0861816V0.365234H20.6569V5.13393Z" fill="#FB2E13"/>
<path d="M26.1598 0.365234H33.5538L42.391 23.3844H36.7664L35.0327 18.6157H24.681L22.9472 23.3844H17.3176L26.1598 0.365234ZM33.2938 13.847L29.8568 4.44524L26.4199 13.847H33.2938Z" fill="#FB2E13"/>
<path d="M48.3623 23.3844H43.2222V0.365234H52.0287L60.254 19.8626V0.365234H65.3941V23.3844H56.5875L48.3623 3.88176V23.3844Z" fill="#FB2E13"/>
<path d="M73.7264 0.365234V14.0139C73.7264 17.04 75.2358 18.9444 78.0659 18.9444C80.8961 18.9444 82.4055 17.0348 82.4055 14.0139V0.365234H87.5456V14.0139C87.5456 19.9357 83.9455 23.7131 78.0659 23.7131C72.1864 23.7131 68.5863 19.9305 68.5863 14.0139V0.365234H73.7264Z" fill="#FB2E13"/>
<path d="M110.972 23.3844H105.026L98.9529 13.6852L95.8678 17.1392V23.3896H90.7276V0.365234H95.8678V9.67306L104.062 0.365234H110.488L102.293 9.73567L110.972 23.3844Z" fill="#FB2E13"/>
<path d="M111.875 0.365234H117.015V23.3844H111.875V0.365234Z" fill="#FB2E13"/>
<path d="M136.673 0.365234V3.81915H123.975V10.3983H135.704V13.8522H123.975V23.3896H120.441V0.365234H136.673Z" fill="#FB2E13"/>
<path d="M144.526 0.365234H149.411L158.666 23.3844H154.678L152.526 17.7913H141.405L139.253 23.3844H135.265L144.526 0.365234ZM151.277 14.5044L146.973 3.3548L142.669 14.5044H151.277Z" fill="#FB2E13"/>
<path d="M181.96 23.3844V2.36871L175.372 23.3844H169.905L163.317 2.36871V23.3844H159.783V0.365234H166.371L172.638 20.5878L178.905 0.365234H185.494V23.3844H181.96Z" fill="#FB2E13"/>
<path d="M189.252 0.365234H192.786V23.3844H189.252V0.365234Z" fill="#FB2E13"/>
<path d="M200.001 0.365234V19.9305H213.499V23.3844H196.468V0.365234H200.001Z" fill="#FB2E13"/>
<path d="M220.195 10.8209L226.946 0.365234H230.964L221.964 14.0139V23.3844H218.43V14.0139L209.43 0.365234H213.77L220.195 10.8209Z" fill="#FB2E13"/>
</g>
<defs>
<clipPath id="clip0_2_1920">
<rect width="231" height="24" fill="white"/>
</clipPath>
</defs>
</svg>
