<svg width="244" height="244" viewBox="0 0 244 244" fill="none" xmlns="http://www.w3.org/2000/svg">
<path d="M0 0H215.294L244 28.5938V244H28.7059L0 215.406L0 0Z" fill="#E51F18"/>
<path d="M89.9003 106.157H109.873C115.105 106.157 119.622 105.54 123.427 104.307C127.231 103.005 130.118 101.086 132.088 98.5511C134.127 96.0157 135.146 92.8979 135.146 89.1976C135.146 85.9085 133.991 83.2018 131.681 81.0776C129.371 78.9534 126.314 77.8912 122.51 77.8912C118.162 77.8912 114.663 79.1589 112.013 81.6943C109.364 84.1611 108.039 87.9985 108.039 93.2062C108.039 93.8915 108.107 95.1249 108.243 96.9065H31C32.019 84.7779 36.6047 74.8762 44.757 67.2016C52.9772 59.4584 63.847 53.8395 77.3662 50.3448C90.8854 46.7816 106.477 45 124.14 45C140.784 45 155.798 46.6446 169.181 49.9337C182.565 53.2228 193.197 58.3278 201.077 65.2487C209.026 72.101 213 80.7007 213 91.0477C213 100.298 210.147 108.179 204.44 114.688C198.801 121.13 190.174 126.063 178.557 129.489C167.007 132.916 152.537 134.629 135.146 134.629H126.688L145.132 118.697V145.729H89.9003V106.157ZM117.516 200C111.266 200 105.695 198.904 100.804 196.711C95.9127 194.45 92.0743 191.4 89.2889 187.563C86.5715 183.657 85.2128 179.34 85.2128 174.612C85.2128 169.952 86.5715 165.738 89.2889 161.969C92.0743 158.132 95.9127 155.117 100.804 152.924C105.695 150.732 111.266 149.635 117.516 149.635C123.766 149.635 129.337 150.732 134.228 152.924C139.188 155.117 143.026 158.132 145.744 161.969C148.529 165.738 149.922 169.952 149.922 174.612C149.922 179.34 148.529 183.657 145.744 187.563C143.026 191.4 139.188 194.45 134.228 196.711C129.337 198.904 123.766 200 117.516 200Z" fill="white"/>
</svg>
